Coordinates
version=1
nRows=4
nColumns=107
inDegrees=yes

Units are S.I. units (second, meters, Newtons, ...)
If the header above contains a line with 'inDegrees', this indicates whether rotational values are in degrees (yes) or radians (no).

endheader
time	sternoclavicular_r2	sternoclavicular_r3	unrotscap_r3	unrotscap_r2	acromioclavicular_r2	acromioclavicular_r3	acromioclavicular_r1	unrothum_r1	unrothum_r3	unrothum_r2	elv_angle	shoulder_elv	shoulder1_r2	shoulder_rot	elbow_flexion	pro_sup	deviation	flexion	proximal_distal_r1	proximal_distal_r3	cmc_flexion	cmc_abduction	mp_flexion	ip_flexion	mcp2_flexion	mcp2_abduction	pm2_flexion	md2_flexion	mcp3_flexion	mcp3_abduction	pm3_flexion	md3_flexion	mcp4_flexion	mcp4_abduction	pm4_flexion	md4_flexion	mcp5_flexion	mcp5_abduction	pm5_flexion	md5_flexion	bicpt_tx	bicpt_ty	bicpt_tz	bicpt2_tx	bicpt2_ty	bicpt2_tz	ptpt_tx	ptpt_ty	ptpt_tz	FCUpt_tx	FCUpt_ty	FCUpt_tz	EDCpt_tx	EDCpt_ty	EDCpt_tz	APLpt_tx	APLpt_ty	APLpt_tz	FPLpt_tx	FPLpt_ty	FPLpt_tz	FPLpt2_tx	FPLpt2_ty	FPLpt2_tz	PEC1pt2_tx	PEC1pt2_ty	PEC1pt2_tz	PEC1pt3_tx	PEC1pt3_ty	PEC1pt3_tz	PEC2pt2_tx	PEC2pt2_ty	PEC2pt2_tz	PEC2pt3_tx	PEC2pt3_ty	PEC2pt3_tz	PEC3pt2_tx	PEC3pt2_ty	PEC3pt2_tz	PEC3pt3_tx	PEC3pt3_ty	PEC3pt3_tz	DELT2pt2a_tx	DELT2pt2a_ty	DELT2pt2a_tz	DELT2pt2_tx	DELT2pt2_ty	DELT2pt2_tz	LAT1pt2_tx	LAT1pt2_ty	LAT1pt2_tz	LAT1pt3_tx	LAT1pt3_ty	LAT1pt3_tz	LAT2pt2_tx	LAT2pt2_ty	LAT2pt2_tz	LAT2pt3_tx	LAT2pt3_ty	LAT2pt3_tz	LAT3pt2_tx	LAT3pt2_ty	LAT3pt2_tz	LAT3pt3_tx	LAT3pt3_ty	LAT3pt3_tz
      0.56666667	     -0.31560920	      0.13367716	     -0.13367716	      0.31560920	     -0.06390444	      0.51645323	      0.23214217	     -0.23214217	     -0.51645323	      0.06390444	    100.46320749	     74.72328417	     -1.75341375	    -29.53821218	     28.75032363	     16.38885240	      0.01114447	     -0.97110956	      0.01502298	     -0.48555478	     -9.48382043	      2.68318309	    -24.30799566	    -15.22448576	     31.96279278	     13.63237105	      8.52174104	    -25.62032274	     59.29542902	      5.74802479	     85.34375549	     60.85564912	     55.10260863	     -9.17973643	     87.47198267	     36.06110144	     -6.11201123	    -13.46606133	    -12.86677997	      5.00761447	      0.00085097	     -0.03089523	     -0.00483077	      0.01589260	     -0.01801017	     -0.00959973	      0.00633905	     -0.06568302	     -0.00137021	      0.00548913	     -0.18390708	     -0.00000889	     -0.00196666	      0.00050580	      0.00016485	      0.00020382	      0.00008153	      0.00040764	      0.00026089	      0.00078267	      0.00044025	     -0.00120147	      0.00028706	      0.00034448	      0.00244927	      0.00859318	      0.00597787	     -0.00801200	      0.01934504	     -0.01834873	      0.00244927	      0.00859318	      0.00597787	      0.00053967	      0.01793360	     -0.00942344	      0.00389291	      0.00477856	      0.01583154	      0.00000000	      0.00746532	      0.00000000	     -0.00701569	     -0.03242163	     -0.00615368	      0.01867188	     -0.00074136	     -0.00727527	     -0.00087177	      0.01461257	     -0.00597787	      0.00240775	      0.02108859	     -0.01743545	     -0.00585333	      0.01266146	     -0.00535517	     -0.01220481	      0.02673435	     -0.02993085	     -0.02291516	      0.01415592	     -0.00718174	     -0.01519375	      0.03088565	     -0.03740319
      0.60000000	     -0.31558956	      0.13366884	     -0.13366884	      0.31558956	     -0.06390047	      0.51642110	      0.23212773	     -0.23212773	     -0.51642110	      0.06390047	    100.44753943	     74.71863434	     -1.75314029	    -29.52892504	     28.79402581	     16.40820117	      0.01480558	     -0.96857313	      0.01991477	     -0.48428656	     -9.49955059	      2.59141736	    -24.26099483	    -15.32882431	     32.44056338	     13.67299774	      8.15074687	    -26.11774651	     59.20669258	      5.69931194	     85.31352093	     61.22127555	     54.95926136	     -9.26171227	     87.56787767	     36.33906662	     -6.62995629	    -13.47522212	    -13.05099527	      5.00684203	      0.00085242	     -0.03090024	     -0.00483158	      0.01589368	     -0.01802204	     -0.00959831	      0.00633762	     -0.06568395	     -0.00137177	      0.00549094	     -0.18390681	     -0.00000937	     -0.00196898	      0.00050645	      0.00016496	      0.00020534	      0.00008214	      0.00041069	      0.00026284	      0.00078852	      0.00044354	     -0.00120550	      0.00028762	      0.00034515	      0.00244911	      0.00859265	      0.00597750	     -0.00801150	      0.01934384	     -0.01834759	      0.00244911	      0.00859265	      0.00597750	      0.00053964	      0.01793249	     -0.00942286	      0.00389273	      0.00477826	      0.01583109	      0.00000000	      0.00746439	      0.00000000	     -0.00701526	     -0.03241961	     -0.00615290	      0.01866771	     -0.00074105	     -0.00727079	     -0.00087172	      0.01461166	     -0.00597750	      0.00240760	      0.02108728	     -0.01743436	     -0.00585296	      0.01266067	     -0.00535484	     -0.01220405	      0.02673269	     -0.02992899	     -0.02291373	      0.01415504	     -0.00718130	     -0.01519280	      0.03088373	     -0.03740086
      0.63333333	     -0.31571294	      0.13372110	     -0.13372110	      0.31571294	     -0.06392545	      0.51662299	      0.23221848	     -0.23221848	     -0.51662299	      0.06392545	    100.43118991	     74.74784501	     -1.75285494	    -29.53802680	     28.79743563	     16.41096186	      0.01485133	     -0.96863136	      0.01997481	     -0.48431568	     -9.49930136	      2.59113714	    -24.26095744	    -15.32881611	     32.44140736	     13.67385622	      8.15098484	    -26.11770306	     59.20600983	      5.69924592	     85.31351686	     61.22123864	     54.95885598	     -9.26185936	     87.56827959	     36.33908602	     -6.63750844	    -13.47523057	    -13.05387627	      5.00652427	      0.00085253	     -0.03090063	     -0.00483164	      0.01589384	     -0.01802296	     -0.00959810	      0.00633742	     -0.06568408	     -0.00137199	      0.00549119	     -0.18390677	     -0.00000944	     -0.00196931	      0.00050654	      0.00016498	      0.00020531	      0.00008212	      0.00041062	      0.00026280	      0.00078839	      0.00044347	     -0.00120544	      0.00028761	      0.00034514	      0.00245007	      0.00859601	      0.00597983	     -0.00801464	      0.01935140	     -0.01835476	      0.00245007	      0.00859601	      0.00597983	      0.00053985	      0.01793950	     -0.00942654	      0.00389385	      0.00478013	      0.01583390	      0.00000000	      0.00747026	      0.00000000	     -0.00701800	     -0.03243229	     -0.00615778	      0.01867180	     -0.00074136	     -0.00727518	     -0.00087206	      0.01461737	     -0.00597983	      0.00240854	      0.02109552	     -0.01744118	     -0.00585525	      0.01266562	     -0.00535693	     -0.01220882	      0.02674314	     -0.02994069	     -0.02292269	      0.01416058	     -0.00718410	     -0.01519874	      0.03089580	     -0.03741548
      0.66666667	     -0.31931687	      0.13524756	     -0.13524756	      0.31931687	     -0.06465517	      0.52252035	      0.23486930	     -0.23486930	     -0.52252035	      0.06465517	     99.35973382	     75.60110829	     -1.73415450	    -24.43699228	     28.73754034	     11.33320868	      0.02361248	     -1.01183154	      0.03158972	     -0.50591577	     -9.55361833	      2.52964831	    -24.09418759	    -15.25795135	     33.64953270	     13.74740935	      7.71017879	    -27.94007951	     59.06973555	      5.53309832	     85.32173254	     61.20284172	     54.90979434	     -9.42493337	     87.40422780	     36.85254453	     -8.09259433	    -13.50247417	    -13.15361871	      5.00483494	      0.00085055	     -0.03089376	     -0.00483054	      0.01558083	     -0.01800669	     -0.00995414	      0.00671260	     -0.06544147	     -0.00096295	      0.00502092	     -0.18397473	      0.00012652	     -0.00135998	      0.00034093	      0.00012953	      0.00017787	      0.00007115	      0.00035573	      0.00022767	      0.00068300	      0.00038419	     -0.00121944	      0.00028955	      0.00034746	      0.00247804	      0.00869413	      0.00604809	     -0.00810613	      0.01957230	     -0.01856429	      0.00247804	      0.00869413	      0.00604809	      0.00054601	      0.01814428	     -0.00953415	      0.00392646	      0.00483470	      0.01591489	      0.00000000	      0.00764295	      0.00000000	     -0.00709811	     -0.03280251	     -0.00630118	      0.01620498	     -0.00057196	     -0.00498864	     -0.00088201	      0.01478423	     -0.00604809	      0.00243604	      0.02133633	     -0.01764027	     -0.00592209	      0.01281020	     -0.00541808	     -0.01234819	      0.02704842	     -0.03028247	     -0.02318436	      0.01432222	     -0.00726611	     -0.01537224	      0.03124848	     -0.03784259
